<svg width="1500" height="500" viewBox="0 0 1500 500" fill="none" xmlns="http://www.w3.org/2000/svg">

<defs>

<linearGradient id="bg" x1="0" y1="0" x2="1500" y2="500">

<stop stop-color="#0D1117"/>

<stop offset="1" stop-color="#161B22"/>

</linearGradient>

<linearGradient id="blue" x1="0" y1="0" x2="1" y2="1">

<stop stop-color="#58A6FF"/>

<stop offset="1" stop-color="#7C3AED"/>

</linearGradient>

</defs>

<rect width="1500" height="500" fill="url(#bg)"/>

<g opacity="0.08">

<path d="M0 60H1500"/>

<path d="M0 120H1500"/>

<path d="M0 180H1500"/>

<path d="M0 240H1500"/>

<path d="M0 300H1500"/>

<path d="M0 360H1500"/>

<path d="M0 420H1500"/>

<path d="M150 0V500"/>

<path d="M300 0V500"/>

<path d="M450 0V500"/>

<path d="M600 0V500"/>

<path d="M750 0V500"/>

<path d="M900 0V500"/>

<path d="M1050 0V500"/>

<path d="M1200 0V500"/>

<path d="M1350 0V500"/>

<path stroke="#58A6FF" stroke-width="1"/>

</g>

<circle cx="1180" cy="120" r="120" fill="#58A6FF" opacity="0.06"/>

<circle cx="1350" cy="360" r="170" fill="#7C3AED" opacity="0.05"/>

<text

x="90"

y="150"

fill="#F0F6FC"

font-size="62"

font-weight="700"

font-family="Segoe UI">

Suraj Kumar

</text>

<text

x="90"

y="205"

fill="#58A6FF"

font-size="30"

font-family="Segoe UI"

font-weight="600">

AI Backend Engineer

</text>

<text

x="90"

y="255"

fill="#8B949E"

font-size="24"

font-family="Segoe UI">

Building Intelligent Enterprise Systems

</text>

<rect

x="90"

y="305"

rx="8"

ry="8"

width="120"

height="38"

fill="#21262D"/>

<text

x="112"

y="330"

fill="#58A6FF"

font-size="18"

font-family="Segoe UI">

Laravel

</text>

<rect

x="225"

y="305"

rx="8"

ry="8"

width="115"

height="38"

fill="#21262D"/>

<text

x="248"

y="330"

fill="#58A6FF"

font-size="18"

font-family="Segoe UI">

Python

</text>

<rect

x="355"

y="305"

rx="8"

ry="8"

width="90"

height="38"

fill="#21262D"/>

<text

x="382"

y="330"

fill="#58A6FF"

font-size="18"

font-family="Segoe UI">

AWS

</text>

<rect

x="460"

y="305"

rx="8"

ry="8"

width="130"

height="38"

fill="#21262D"/>

<text

x="480"

y="330"

fill="#58A6FF"

font-size="18"

font-family="Segoe UI">

GraphQL

</text>

<rect

x="605"

y="305"

rx="8"

ry="8"

width="90"

height="38"

fill="#21262D"/>

<text

x="632"

y="330"

fill="#58A6FF"

font-size="18"

font-family="Segoe UI">

LLMs

</text>

<text

x="90"

y="410"

fill="#3FB950"

font-size="22"

font-family="Segoe UI">

Enterprise SaaS • AI Agents • Text-to-SQL • RAG • Cloud Architecture

</text>

</svg>